<svg xmlns="http://www.w3.org/2000/svg" viewBox="0 0 1500 770">
    <g fill="#fff" transform="translate(0 -27.642694)">
        <rect width="100%" height="100%" y="27.642694"/>
        <g class="bpmn-sub-process" data-bpmn-id="sub_process_1">
            <rect width="798.90997" height="636.29999" x="451.89999" y="111.45" stroke="#000" stroke-width="2.02" rx="10.1" ry="10.1"/>
            <path fill="none" stroke="#000" stroke-miterlimit="10" stroke-width="1.52"
                  d="M845.55 738.11c-2.94-2.6-3.59-6.94-1.53-10.29 2.06-3.34 6.23-4.72 9.88-3.26 3.65 1.46 5.72 5.33 4.91 9.18-.82 3.84-4.28 6.54-8.21 6.39"/>
            <path fill="#000" stroke="#000" stroke-miterlimit="10" stroke-width="1.52" d="m847.57 733.06-1.77 5.05-5.8-2.02z"/>
            <text x="746.59088" y="135.22728" fill="#000" font-family="Arial, Helvetica" font-size="11">Discussion Cycle</text>
        </g>
        <g class="bpmn-send-task" data-bpmn-id="send_task_1">
            <rect width="93.93" height="78.779999" x="510.48001" y="348.79999" stroke="#000" stroke-width="2.02" rx="10.1" ry="10.1"/>
            <path fill="#000" stroke="#000" d="M517.54999 355.87h18.790001v12.45H517.54999z"/>
            <path fill="none" stroke="#fff" stroke-miterlimit="10" d="m517.55 355.87 9.39 7.47 9.39-7.47m-18.78 12.45 6.26-6.85m12.52 6.85-6.26-6.85"/>
            <text xml:space="preserve" x="552.37146" y="385.22726" fill="#000" font-family="Arial, Helvetica" font-size="11" overflow="visible"
                  style="text-align:center;white-space:pre;inline-size:78.2737" text-anchor="middle" transform="translate(6.4090909 -.5454545)"><tspan x="552.37146" y="385.22726">Announce
</tspan>
                <tspan x="552.37146" y="398.97727">Issues for
</tspan>
                <tspan x="552.37146" y="412.72727">Discussion</tspan></text>
        </g>
        <g class="bpmn-user-task" data-bpmn-id="user_task_2">
            <rect width="101" height="75.75" x="611.47998" y="471.01001" stroke="#000" stroke-width="2.02" rx="10.1" ry="10.1"/>
            <path fill="#000"
                  d="m626.35 486.67-1.95-.73c-.19-.07-.32-.26-.32-.47v-.35c1.17-.67 1.89-1.92 1.89-3.27v-1.42c0-1.16-.53-2.26-1.45-2.97.02-.12.03-.24.03-.36-.02-1.28-1.07-2.3-2.34-2.3-1.28 0-2.33 1.02-2.35 2.3 0 .12.01.24.03.36-.92.71-1.45 1.8-1.45 2.97v1.42c0 1.35.72 2.6 1.9 3.27v.35c0 .21-.14.4-.33.47l-1.96.73c-.91.35-1.51 1.22-1.51 2.19v4.39c-.01.16.07.32.21.4.14.08.32.08.46 0s.22-.24.21-.4v-4.39c0-.07.01-.15.02-.22l.71.7c.18.19.29.44.29.7v3.21c-.01.16.07.32.21.4.14.08.32.08.46 0s.22-.24.21-.4v-3.21c.01-.49-.19-.97-.54-1.32l-.9-.9c.14-.14.3-.25.49-.32l1.61-.6 1.78 1.78v4.57c-.01.16.08.32.22.4.14.08.31.08.45 0s.23-.24.22-.4v-4.57l1.78-1.78 1.61.6c.19.08.35.18.5.32l-.91.9c-.35.35-.54.83-.54 1.32v3.21c-.01.16.07.32.21.4.14.09.32.09.46 0 .14-.08.22-.24.22-.4v-3.21c-.01-.26.1-.51.28-.69l.71-.71c.01.08.02.15.02.23v4.38c.01.24.2.43.44.43s.44-.19.45-.43v-4.39c-.01-.97-.62-1.84-1.53-2.19zm-4.14-11.03c.74.01 1.36.57 1.44 1.31-.92-.39-1.97-.39-2.89 0 .08-.74.7-1.3 1.45-1.31zm-2.89 4.79c0-1.6 1.29-2.88 2.89-2.88 1.59 0 2.88 1.28 2.88 2.88v.48c-2.07-.15-4.06-1.33-4.08-1.34-.11-.06-.23-.08-.35-.05-.12.04-.22.12-.28.23-.2.4-.66.73-1.06.94zm0 1.42v-.17c.41-.18 1.14-.55 1.61-1.14.72.38 2.39 1.15 4.16 1.26v.05c0 1.59-1.29 2.88-2.88 2.88-1.6 0-2.89-1.29-2.89-2.88zm2.89 6.02-1.41-1.4c.26-.26.42-.61.42-.98.65.17 1.32.17 1.97 0 0 .37.16.72.42.98z"/>
            <text xml:space="preserve" x="625" y="507" fill="#000" font-family="Arial, Helvetica" font-size="11" style="white-space:pre;inline-size:80"><tspan x="625" y="507">Check Calendar
</tspan>
                <tspan x="625" y="520.75">for Conference
</tspan>
                <tspan x="625" y="534.49997">Call</tspan></text>
        </g>
        <g class="bpmn-user-task" data-bpmn-id="user_task_3">
            <rect width="101" height="75.75" x="783.17999" y="211.44" stroke="#000" stroke-width="2.02" rx="10.1" ry="10.1"/>
            <path fill="#000"
                  d="m798.05 227.1-1.95-.73c-.19-.07-.32-.26-.32-.47v-.35c1.17-.67 1.89-1.92 1.89-3.27v-1.42c0-1.16-.53-2.26-1.45-2.97.02-.12.03-.24.03-.36-.02-1.28-1.07-2.3-2.34-2.3-1.28 0-2.33 1.02-2.35 2.3 0 .12.01.24.03.36-.92.71-1.45 1.8-1.45 2.97v1.42c0 1.35.72 2.6 1.9 3.27v.35c0 .21-.14.4-.33.47l-1.96.73c-.91.35-1.51 1.22-1.51 2.19v4.39c-.01.16.07.32.21.4.14.08.32.08.46 0s.22-.24.21-.4v-4.39c0-.07.01-.15.02-.22l.71.7c.18.19.29.44.29.7v3.21c-.01.16.07.32.21.4.14.08.32.08.46 0s.22-.24.21-.4v-3.21c.01-.49-.19-.97-.54-1.32l-.9-.9c.14-.14.3-.25.49-.32l1.61-.6 1.78 1.78v4.57c-.01.16.08.32.22.4.14.08.31.08.45 0s.23-.24.22-.4v-4.57l1.78-1.78 1.61.6c.19.08.35.18.5.32l-.91.9c-.35.35-.54.83-.54 1.32v3.21c-.01.16.07.32.21.4.14.09.32.09.46 0 .14-.08.22-.24.22-.4v-3.21c-.01-.26.1-.51.28-.69l.71-.71c.01.08.02.15.02.23v4.38c.01.24.2.43.44.43s.44-.19.45-.43v-4.39c-.01-.97-.62-1.84-1.53-2.19zm-4.14-11.03c.74.01 1.36.57 1.44 1.31-.92-.39-1.97-.39-2.89 0 .08-.74.7-1.3 1.45-1.31zm-2.89 4.79c0-1.6 1.29-2.88 2.89-2.88 1.59 0 2.88 1.28 2.88 2.88v.48c-2.07-.15-4.06-1.33-4.08-1.34-.11-.06-.23-.08-.35-.05-.12.04-.22.12-.28.23-.2.4-.66.73-1.06.94zm0 1.42v-.17c.41-.18 1.14-.55 1.61-1.14.72.38 2.39 1.15 4.16 1.26v.05c0 1.59-1.29 2.88-2.88 2.88-1.6 0-2.89-1.29-2.89-2.88zm2.89 6.02-1.41-1.4c.26-.26.42-.61.42-.98.65.17 1.32.17 1.97 0 0 .37.16.72.42.98z"
                  pointer-events="all"/>
            <text xml:space="preserve" x="870" y="240" fill="#000" font-family="Arial, Helvetica" font-size="11" style="white-space:pre;inline-size:60.68"
                  text-anchor="middle" transform="translate(-35.227273 2.2727273)"><tspan x="870" y="240">Moderate
</tspan>
                <tspan x="870" y="253.75">E-mail
</tspan>
                <tspan x="870" y="267.5">Discussion</tspan></text>
        </g>
        <g class="bpmn-boundary-event" data-bpmn-id="boundary_event_1">
            <circle cx="884.17999" cy="256.89001" r="16.16" stroke="#000" stroke-width="2.02"/>
            <circle cx="884.17999" cy="256.89001" r="12.4836" fill="transparent" stroke="#000" stroke-width="2.02"/>
            <path stroke="#000" stroke-miterlimit="10"
                  d="M884.26 250.38c.24 0 .43-.19.43-.42v-.21c0-.43-.19-.43-.43-.43-.23 0-.42.19-.42.43v.21c0 .23.19.42.42.42zm0 13.19c-.23 0-.42.19-.42.42v.21c0 .24.19.43.42.43.24 0 .43-.19.43-.43v-.21c0-.23-.19-.42-.43-.42zm-7.01-7.02h-.22c-.23 0-.42.19-.42.43 0 .23.19.42.42.42h.22c.23 0 .9-.19.42-.42 0-.24-.19-.43-.42-.43zm14.24 0h-.21c-.23 0-.42.19-.42.43 0 .23.19.42.42.42h.21c.24 0 .43-.19.43-.42 0-.24-.19-.43-.43-.43m-12.03-4.98c-.17-.17-.43-.17-.6 0-.17.17-.17.43 0 .6l.15.15c.09.08.19.13.3.13.11 0 .19-.05.3-.13.17-.17.17-.43 0-.6l-.15-.15m-.45 10.06-.15.15c-.17.17-.17.43 0 .6.09.08.19.12.3.12.11 0 .21-.04.3-.12l.15-.15c.17-.17.17-.43 0-.6-.17-.17-.43-.17-.6 0m10.06-10.06-.15.15c-.17.17-.17.43 0 .6.09.08.19.13.3.13.1 0 .21-.05.3-.13l.14-.15c.17-.17.17-.43 0-.6-.17-.17-.42-.17-.59 0m-4.38 5.24v-3.87c0-.24-.19-.43-.43-.43-.23 0-.42.19-.42.43v4.04c0 .1.04.21.13.29l4.65 4.66c.09.08.19.13.3.13.11 0 .21-.05.3-.13.17-.17.17-.43 0-.6l-4.53-4.52m-.43-9.62c-5.4 0-9.78 4.38-9.78 9.79 0 5.4 4.38 9.78 9.78 9.78 5.4 0 9.78-4.38 9.78-9.78 0-5.41-4.38-9.79-9.78-9.79m0 18.72c-4.93 0-8.93-4-8.93-8.93 0-4.94 4-8.94 8.93-8.94 4.94 0 8.93 4 8.93 8.94 0 4.93-3.99 8.93-8.93 8.93"/>
            <text x="1017.9526" y="210.99808" stroke-width="1.11595" font-family="Arial, Helvetica" font-size="11" text-anchor="middle"
                  transform="scale(.8961 1.11596)">7 Days
            </text>
        </g>
        <g class="bpmn-exclusive-gateway" data-bpmn-id="exclusive_gateway_2">
            <path stroke="#000" stroke-miterlimit="10" stroke-width="2.02" d="m805.4 484.14 21.21 21.21-21.21 21.21-21.21-21.21z"/>
            <path fill="#000" stroke="#000" stroke-miterlimit="10"
                  d="m811.09220959 496.05154583 3.59917351 3.59917351L808.99210245 505.35l5.69928065 5.69928066-3.59917351 3.59917351-5.69928066-5.69928065-5.69928065 5.69928065-3.59917352-3.59917351L801.79375542 505.35l-5.69928066-5.69928066 3.59917352-3.59917351 5.69928065 5.69928065z"/>
            <text xml:space="preserve" x="776" y="543" fill="#000" font-family="Arial, Helvetica" font-size="11" overflow="visible"
                  style="text-align:center;white-space:pre;inline-size:86.97" text-anchor="middle" transform="translate(30)"><tspan x="776" y="543">Conference Call
</tspan>
                <tspan x="776" y="556.74997">in Discussion
</tspan>
                <tspan x="776" y="570.49997">Week?</tspan></text>
        </g>
        <g class="bpmn-intermediate-catch-event" data-bpmn-id="intermediate_catch_event_1">
            <circle cx="805.40002" cy="424.54999" r="16.16" stroke="#000" stroke-width="2.02"/>
            <circle cx="805.40002" cy="424.54999" r="12.4836" fill="transparent" stroke="#000" stroke-width="2.02"/>
            <path stroke="#000" stroke-miterlimit="10"
                  d="M805.48 418.04c.24 0 .43-.19.43-.42v-.21c0-.43-.19-.43-.43-.43-.23 0-.42.19-.42.43v.21c0 .23.19.42.42.42zm0 13.19c-.23 0-.42.19-.42.42v.21c0 .24.19.43.42.43.24 0 .43-.19.43-.43v-.21c0-.23-.19-.42-.43-.42zm-7.01-7.02h-.22c-.23 0-.42.19-.42.43 0 .23.19.42.42.42h.22c.23 0 .9-.19.42-.42 0-.24-.19-.43-.42-.43zm14.24 0h-.21c-.23 0-.42.19-.42.43 0 .23.19.42.42.42h.21c.24 0 .43-.19.43-.42 0-.24-.19-.43-.43-.43m-12.03-4.98c-.17-.17-.43-.17-.6 0-.17.17-.17.43 0 .6l.15.15c.09.08.19.13.3.13.11 0 .19-.05.3-.13.17-.17.17-.43 0-.6l-.15-.15m-.45 10.06-.15.15c-.17.17-.17.43 0 .6.09.08.19.12.3.12.11 0 .21-.04.3-.12l.15-.15c.17-.17.17-.43 0-.6-.17-.17-.43-.17-.6 0m10.06-10.06-.15.15c-.17.17-.17.43 0 .6.09.08.19.13.3.13.1 0 .21-.05.3-.13l.14-.15c.17-.17.17-.43 0-.6-.17-.17-.42-.17-.59 0m-4.38 5.24v-3.87c0-.24-.19-.43-.43-.43-.23 0-.42.19-.42.43v4.04c0 .1.04.21.13.29l4.65 4.66c.09.08.19.13.3.13.11 0 .21-.05.3-.13.17-.17.17-.43 0-.6l-4.53-4.52m-.43-9.62c-5.4 0-9.78 4.38-9.78 9.79 0 5.4 4.38 9.78 9.78 9.78 5.4 0 9.78-4.38 9.78-9.78 0-5.41-4.38-9.79-9.78-9.79m0 18.72c-4.93 0-8.93-4-8.93-8.93 0-4.94 4-8.94 8.93-8.94 4.94 0 8.93 4 8.93 8.94 0 4.93-3.99 8.93-8.93 8.93"/>
            <text xml:space="preserve" x="745" y="379" fill="#000" font-family="Arial, Helvetica" font-size="11" overflow="visible"
                  style="text-align:center;white-space:pre;inline-size:95.4878" transform="translate(10 3)"><tspan x="745" y="379">Wait until </tspan>
                <tspan x="745" y="392.75">Thursday, 9 am</tspan></text>
        </g>
        <g class="bpmn-intermediate-catch-event" data-bpmn-id="intermediate_catch_event_2">
            <circle cx="653.90002" cy="656.84998" r="16.16" stroke="#000" stroke-width="2.02"/>
            <circle cx="653.90002" cy="656.84998" r="12.4836" fill="transparent" stroke="#000" stroke-width="2.02"/>
            <path stroke="#000" stroke-miterlimit="10"
                  d="M653.98 650.34c.24 0 .43-.19.43-.42v-.21c0-.43-.19-.43-.43-.43-.23 0-.42.19-.42.43v.21c0 .23.19.42.42.42zm0 13.19c-.23 0-.42.19-.42.42v.21c0 .24.19.43.42.43.24 0 .43-.19.43-.43v-.21c0-.23-.19-.42-.43-.42zm-7.01-7.02h-.22c-.23 0-.42.19-.42.43 0 .23.19.42.42.42h.22c.23 0 .9-.19.42-.42 0-.24-.19-.43-.42-.43zm14.24 0H661c-.23 0-.42.19-.42.43 0 .23.19.42.42.42h.21c.24 0 .43-.19.43-.42 0-.24-.19-.43-.43-.43m-12.03-4.98c-.17-.17-.43-.17-.6 0-.17.17-.17.43 0 .6l.15.15c.09.08.19.13.3.13.11 0 .19-.05.3-.13.17-.17.17-.43 0-.6l-.15-.15m-.45 10.06-.15.15c-.17.17-.17.43 0 .6.09.08.19.12.3.12.11 0 .21-.04.3-.12l.15-.15c.17-.17.17-.43 0-.6-.17-.17-.43-.17-.6 0m10.06-10.06-.15.15c-.17.17-.17.43 0 .6.09.08.19.13.3.13.1 0 .21-.05.3-.13l.14-.15c.17-.17.17-.43 0-.6-.17-.17-.42-.17-.59 0m-4.38 5.24v-3.87c0-.24-.19-.43-.43-.43-.23 0-.42.19-.42.43v4.04c0 .1.04.21.13.29l4.65 4.66c.09.08.19.13.3.13.11 0 .21-.05.3-.13.17-.17.17-.43 0-.6l-4.53-4.52m-.43-9.62c-5.4 0-9.78 4.38-9.78 9.79 0 5.4 4.38 9.78 9.78 9.78 5.4 0 9.78-4.38 9.78-9.78 0-5.41-4.38-9.79-9.78-9.79m0 18.72c-4.93 0-8.93-4-8.93-8.93 0-4.94 4-8.94 8.93-8.94 4.94 0 8.93 4 8.93 8.94 0 4.93-3.99 8.93-8.93 8.93"/>
            <text xml:space="preserve" x="593" y="614" fill="#000" font-family="Arial, Helvetica" font-size="11" overflow="visible"
                  style="text-align:left;white-space:pre;inline-size:92.2695" transform="translate(19 77)"><tspan x="593" y="614">Delay 6 days from
</tspan>
                <tspan x="593" y="627.74997">Announcement</tspan></text>
        </g>
        <g class="bpmn-user-task" data-bpmn-id="user_task_4">
            <rect width="101" height="70.699997" x="884.17999" y="390.20999" stroke="#000" stroke-width="2.02" rx="10.1" ry="10.1"/>
            <path fill="#000"
                  d="m898.4 404.83-1.82-.68c-.19-.07-.31-.25-.31-.45v-.32c1.1-.63 1.77-1.79 1.77-3.05V399c0-1.08-.5-2.11-1.35-2.77.02-.11.03-.22.03-.34-.03-1.19-1-2.14-2.19-2.14-1.2 0-2.17.95-2.19 2.14 0 .12.01.23.02.34-.85.66-1.35 1.68-1.35 2.77v1.33c0 1.26.68 2.42 1.77 3.05v.32c0 .2-.12.38-.3.45l-1.83.68c-.85.32-1.41 1.13-1.41 2.04v4.1c-.01.15.07.29.2.37.13.08.29.08.42 0s.21-.22.2-.37v-4.1c.01-.07.01-.14.02-.21l.66.66c.17.17.27.41.27.65v3c-.01.15.07.29.2.37.13.08.3.08.43 0s.2-.22.2-.37v-3c0-.46-.18-.9-.51-1.23l-.84-.84c.13-.13.28-.23.46-.3l1.5-.56 1.66 1.66v4.27c0 .15.07.29.2.37.14.08.3.08.43 0s.21-.22.2-.37v-4.26l1.67-1.67 1.5.56c.17.07.33.17.46.3l-.84.84c-.33.33-.51.77-.51 1.23v3c-.01.15.07.29.2.37.13.08.29.08.42 0s.21-.22.21-.37v-3c-.01-.24.09-.47.26-.64l.66-.66c.01.07.02.14.02.21v4.09c.01.22.19.4.41.4.23 0 .41-.18.42-.4v-4.1c-.01-.91-.57-1.72-1.42-2.04zm-3.87-10.29c.69 0 1.27.52 1.35 1.21-.87-.36-1.84-.36-2.7 0 .07-.69.65-1.21 1.35-1.21zm-2.69 4.46c0-1.49 1.2-2.69 2.69-2.69 1.48 0 2.69 1.2 2.69 2.69v.45c-1.94-.14-3.79-1.24-3.81-1.25-.1-.06-.22-.08-.33-.04-.11.03-.2.11-.25.21-.19.37-.62.68-.99.88zm0 1.33v-.16c.38-.17 1.06-.52 1.49-1.07.68.36 2.23 1.08 3.89 1.18v.05c0 1.48-1.21 2.69-2.69 2.69-1.49 0-2.69-1.21-2.69-2.69zm2.69 5.62-1.31-1.31c.24-.24.38-.57.39-.92.6.17 1.23.17 1.83 0 .01.35.15.68.4.92z"/>
            <text xml:space="preserve" x="900" y="420" fill="#000" font-family="Arial, Helvetica" font-size="11" overflow="visible"
                  style="text-align:center;white-space:pre;inline-size:82.8811"><tspan x="900" y="420">Moderate
</tspan>
                <tspan x="900" y="433.75">Conference Call
</tspan>
                <tspan x="900" y="447.5">Discussion</tspan></text>
        </g>
        <g class="bpmn-send-task" data-bpmn-id="send_task_2">
            <rect width="101" height="75.75" x="732.67999" y="622.51001" stroke="#000" stroke-width="2.02" rx="10.1" ry="10.1"/>
            <path fill="#000" stroke="#000" d="M739.75 629.58002h20.200001v13.39H739.75z"/>
            <path fill="none" stroke="#fff" stroke-miterlimit="10" d="m739.75 629.58 10.1 8.03 10.1-8.03m-20.2 13.39 6.73-7.36m13.47 7.36-6.73-7.36"/>
            <text xml:space="preserve" x="751.72412" y="660.91956" fill="#000" font-family="Arial, Helvetica" font-size="11" overflow="visible"
                  style="text-align:left;white-space:pre;inline-size:81.9559" transform="translate(13.793103 -14.942529)"><tspan x="751.72412" y="660.91956">E-mail
</tspan>
                <tspan x="751.72412" y="674.66953">discussion
</tspan>
                <tspan x="751.72412" y="688.41953">Deadline
</tspan>
                <tspan x="751.72412" y="702.16953">Warning</tspan></text>
        </g>
        <g stroke="#000" stroke-miterlimit="10" class="bpmn-exclusive-gateway" data-bpmn-id="exclusive_gateway_3" pointer-events="all">
            <path stroke-width="2.02" d="m1017.5 484.14 21.21 21.21-21.21 21.21-21.21-21.21z"/>
            <path fill="#000"
                  d="m1023.19220959 496.05154583 3.59917351 3.59917351L1021.09210245 505.35l5.69928065 5.69928066-3.59917351 3.59917351-5.69928066-5.69928065-5.69928065 5.69928065-3.59917352-3.59917351L1013.89375542 505.35l-5.69928066-5.69928066 3.59917352-3.59917351 5.69928065 5.69928065z"/>
        </g>
        <g stroke="#000" stroke-miterlimit="10" class="bpmn-parallel-gateway" data-bpmn-id="parallel_gateway_2" pointer-events="all">
            <path stroke-width="2.02" d="m1088.2 361.93 21.21 21.21-21.21 21.21-21.21-21.21z"/>
            <path fill="#000" d="M1085.65 372.54h5.09v8.06h8.06v5.09h-8.06v8.06h-5.09v-8.06h-8.06v-5.09h8.06z"/>
        </g>
        <g class="bpmn-task" data-bpmn-id="task_1">
            <rect width="83.830002" height="68.68" x="1146.78" y="348.79999" stroke="#000" stroke-width="2.02" rx="10.1" ry="10.1"/>
            <text xml:space="preserve" x="1159.7701" y="370.11493" fill="#000" font-family="Arial, Helvetica" font-size="11" overflow="visible"
                  style="text-align:left;white-space:pre;inline-size:70.8398" transform="translate(1.1494253 3.4482759)"><tspan x="1159.7701" y="370.11493">Evaluate
</tspan>
                <tspan x="1159.7701" y="383.86493">Discussion
</tspan>
                <tspan x="1159.7701" y="397.61493">Progress</tspan></text>
        </g>
        <g class="bpmn-text-annotation" data-bpmn-id="text_annotation_1">
            <path fill="none" stroke="#000" stroke-miterlimit="10" stroke-width="2.02" d="M873.07 574.03h-10.1v36.36h10.1"/>
            <text x="874.71265" y="595.40228" fill="#000" font-family="Arial, Helvetica" font-size="11" overflow="visible" style="text-align:left">Conference
                Calls are every two weeks
            </text>
        </g>
        <g class="bpmn-text-annotation" data-bpmn-id="text_annotation_2">
            <path fill="none" stroke="#000" stroke-miterlimit="10" stroke-width="2.02" d="M1148.8 547.77h-10.1v87.87h10.1" pointer-events="all"/>
            <text xml:space="preserve" x="1136.3636" y="562.55627" fill="#000" font-family="Arial, Helvetica" font-size="11" pointer-events="none"
                  style="white-space:pre;inline-size:89.7432" transform="translate(13.636363 4.5454545)"><tspan x="1136.3636" y="562.55627">The Process will </tspan>
                <tspan x="1136.3636" y="576.30625">loop if there is no </tspan>
                <tspan x="1136.3636" y="590.05625">discussion of the </tspan>
                <tspan x="1136.3636" y="603.80625">issues or </tspan>
                <tspan x="1136.3636" y="617.55625">sufficient solutions</tspan></text>
        </g>
        <g stroke="#000" stroke-miterlimit="10" stroke-width="1.52" class="bpmn-sequence-flow" data-bpmn-id="sequence_flow_36">
            <path fill="none" d="M1038.36 505H1085.48q2.52 0 2.52-2.52v-83" pointer-events="stroke"/>
            <path fill="#000" d="m1088 405.85 4.55 13.63h-9.09z" pointer-events="all"/>
        </g>
        <g stroke="#000" stroke-miterlimit="10" stroke-width="1.52" class="bpmn-sequence-flow" data-bpmn-id="sequence_flow_35">
            <path fill="none" d="M985.18 425h29.3q2.52 0 2.52 2.52v41.79"/>
            <path fill="#000" d="m1017 482.95-4.54-13.64h9.08z"/>
        </g>
        <g stroke="#000" stroke-miterlimit="10" stroke-width="1.52" class="bpmn-sequence-flow" data-bpmn-id="sequence_flow_34">
            <path fill="none" d="M900.34 257h185.14q2.52 0 2.52 2.52v87.28" pointer-events="stroke"/>
            <path fill="#000" d="m1088 360.44-4.54-13.64h9.09z"/>
        </g>
        <g stroke="#000" stroke-miterlimit="10" stroke-width="1.52" class="bpmn-sequence-flow" data-bpmn-id="sequence_flow_33">
            <path fill="none" d="M821.55 425h47.3"/>
            <path fill="#000" d="m882.48 425-13.63 4.55v-9.1z"/>
        </g>
        <g class="bpmn-sequence-flow" data-bpmn-id="sequence_flow_32">
            <path fill="none" stroke="#000" stroke-miterlimit="10" stroke-width="1.52" d="M805 484.54v-.27q0-.27.02-2.79l.24-25.44"/>
            <path fill="#000" stroke="#000" stroke-miterlimit="10" stroke-width="1.52" d="m805.38 442.4 4.42 13.68-9.09-.08z"/>
            <text x="770.11493" y="481.60922" fill="#000" font-family="Arial, Helvetica" font-size="11" overflow="visible" style="text-align:left">Yes</text>
        </g>
        <g class="bpmn-sequence-flow" data-bpmn-id="sequence_flow_31">
            <path fill="none" stroke="#000" stroke-miterlimit="10" stroke-width="1.52" d="M826.26 505h167.22q2.52 0 0 0h-6.54" pointer-events="stroke"/>
            <path fill="#000" stroke="#000" stroke-miterlimit="10" stroke-width="1.52" d="m995.57 505-8.63 2.88v-5.76z"/>
            <text x="841.37933" y="494.25287" fill="#000" font-family="Arial, Helvetica" font-size="11" overflow="visible" style="text-align:left">No</text>
        </g>
        <g stroke="#000" stroke-miterlimit="10" stroke-width="1.52" class="bpmn-sequence-flow" data-bpmn-id="sequence_flow_30">
            <path fill="none" d="M712.48 508.89h59.91"/>
            <path fill="#000" d="m786.03 508.89-13.64 4.54v-9.09z"/>
        </g>
        <g stroke="#000" stroke-miterlimit="10" stroke-width="1.52" class="bpmn-sequence-flow" data-bpmn-id="sequence_flow_29">
            <path fill="none" d="M1109.41 383.14h22.04"/>
            <path fill="#000" d="m1145.08 383.14-13.63 4.55v-9.09z"/>
        </g>
        <g stroke="#000" stroke-miterlimit="10" stroke-width="1.52" class="bpmn-sequence-flow" data-bpmn-id="sequence_flow_28">
            <path fill="none" d="M833.68 657h251.8q2.52 0 2.52-2.52v-235"/>
            <path fill="#000" d="m1088 405.85 4.55 13.63h-9.09z"/>
        </g>
        <g stroke="#000" stroke-miterlimit="10" stroke-width="1.52" class="bpmn-sequence-flow" data-bpmn-id="sequence_flow_27">
            <path fill="none" d="M670.06 656.85h47.29"/>
            <path fill="#000" d="m730.98 656.85-13.63 4.55v-9.09z"/>
        </g>
        <g stroke="#000" stroke-miterlimit="10" stroke-width="1.52" class="bpmn-sequence-flow" data-bpmn-id="sequence_flow_26">
            <path fill="none" d="M573 427.58v226.9q0 2.52 2.52 2.52h46.89"/>
            <path fill="#000" d="m636.05 657-13.64 4.55v-9.09z"/>
        </g>
        <g stroke="#000" stroke-miterlimit="10" stroke-width="1.52" class="bpmn-sequence-flow" data-bpmn-id="sequence_flow_25">
            <path fill="none" d="M604.41 394h47.07q2.52 0 2.52 2.52v59.16"/>
            <path fill="#000" d="m654 469.32-4.54-13.64h9.08z"/>
        </g>
        <g stroke="#000" stroke-miterlimit="10" stroke-width="1.52" class="bpmn-sequence-flow" data-bpmn-id="sequence_flow_24">
            <path fill="none" d="M573 348.8V248.53q0-2.53 2.52-2.53h192.33"/>
            <path fill="#000" d="m781.48 246-13.63 4.54v-9.09z"/>
        </g>
        <path fill="none" stroke="#000" stroke-dasharray="1.515, 3.03" stroke-miterlimit="10" stroke-width="1.52" d="M1177.08 547.77V417.48"
              class="bpmn-association" data-bpmn-id="association_1"/>
        <path fill="none" stroke="#000" stroke-dasharray="1.515, 3.03" stroke-miterlimit="10" stroke-width="1.52"
              d="M916.5 574.03v-45.95q0-2.53-2.51-2.84l-92.96-11.5-2.5-.31" class="bpmn-association" data-bpmn-id="association_2"/>
        <g class="bpmn-send-task" data-bpmn-id="send_task_3">
            <rect width="93.93" height="68.68" x="1377.0601" y="377.07999" stroke="#000" stroke-width="2.02" rx="10.1" ry="10.1"/>
            <path fill="#000" stroke="#000" d="M1384.13 384.14999h18.790001v12.45H1384.13z"/>
            <path fill="none" stroke="#fff" stroke-miterlimit="10" d="m1384.13 384.15 9.39 7.47 9.39-7.47m-18.78 12.45 6.26-6.85m12.52 6.85-6.26-6.85"/>
            <text xml:space="preserve" x="1397.7012" y="413.79309" fill="#000" font-family="Arial, Helvetica" font-size="11" overflow="visible"
                  style="white-space:pre;inline-size:73.2889" transform="translate(-6.8965517 1.1494253)"><tspan x="1397.7012" y="413.79309">Announce
</tspan>
                <tspan x="1397.7012" y="427.54309">Issues for Vote</tspan></text>
        </g>
        <g class="bpmn-start-event" data-bpmn-id="start_event_1">
            <circle cx="58" cy="411.42001" r="15.15" stroke="#000" stroke-width="2.02"/>
            <path stroke="#000" stroke-miterlimit="10"
                  d="M58.08 405.32c.22 0 .4-.18.4-.4v-.2c0-.4-.18-.4-.4-.4-.22 0-.4.18-.4.4v.2c0 .22.18.4.4.4zm0 12.36c-.22 0-.4.18-.4.4v.2c0 .22.18.4.4.4.22 0 .4-.18.4-.4v-.2c0-.22-.18-.4-.4-.4zm-6.58-6.58h-.2c-.22 0-.4.18-.4.4 0 .22.18.4.4.4h.2c.22 0 .85-.18.4-.4 0-.22-.18-.4-.4-.4zm13.36 0h-.2c-.22 0-.4.18-.4.4 0 .22.18.4.4.4h.2c.22 0 .39-.18.39-.4 0-.22-.17-.4-.39-.4m-11.29-4.66c-.16-.16-.4-.16-.55 0-.16.16-.16.4 0 .55l.13.14c.08.08.18.12.28.12.1 0 .18-.04.28-.12.16-.15.16-.39 0-.55l-.14-.14m-.42 9.43-.13.14c-.16.15-.16.39 0 .55.07.08.17.12.27.12s.2-.04.28-.12l.14-.14c.16-.16.16-.39 0-.55-.16-.16-.4-.16-.56 0m9.43-9.43-.14.14c-.16.16-.16.4 0 .55.09.08.18.12.28.12.1 0 .2-.04.28-.12l.14-.14c.16-.15.16-.39 0-.55-.16-.16-.4-.16-.56 0m-4.1 4.9v-3.63c0-.22-.18-.4-.4-.4-.22 0-.4.18-.4.4v3.79c0 .1.04.2.12.28l4.36 4.36c.08.08.18.12.28.12.1 0 .2-.04.28-.12.16-.15.16-.39 0-.55l-4.24-4.25m-.4-9.01c-5.06 0-9.17 4.11-9.17 9.17s4.11 9.17 9.17 9.17 9.17-4.11 9.17-9.17-4.11-9.17-9.17-9.17m0 17.54c-4.63 0-8.37-3.75-8.37-8.37 0-4.62 3.74-8.37 8.37-8.37 4.62 0 8.37 3.75 8.37 8.37 0 4.62-3.75 8.37-8.37 8.37"/>
            <text x="43.678162" y="443.67816" fill="#000" font-family="Arial, Helvetica" font-size="11" overflow="visible" style="text-align:left">Friday</text>
        </g>
        <g class="bpmn-user-task" data-bpmn-id="user_task_1">
            <rect width="95.950867" height="68.68" x="146.88" y="377.07999" stroke="#000" stroke-width="2.02" rx="10.1" ry="10.1"/>
            <path fill="#000"
                  d="m160.58 391.28-1.76-.66c-.18-.07-.3-.24-.3-.43v-.32c1.06-.6 1.72-1.74 1.72-2.96v-1.29c0-1.05-.49-2.05-1.32-2.7.02-.1.03-.21.03-.32-.02-1.16-.97-2.09-2.13-2.09s-2.1.93-2.12 2.09c0 .11.01.22.02.32-.83.65-1.31 1.64-1.31 2.7v1.29c0 1.22.65 2.35 1.72 2.96v.32c0 .19-.12.36-.3.43l-1.77.66c-.83.31-1.37 1.1-1.38 1.99v3.97c0 .15.07.29.2.37.13.07.28.07.41 0 .13-.08.2-.22.2-.37v-3.97c0-.07 0-.14.01-.21l.64.64c.17.17.27.4.27.63v2.91c-.01.15.06.29.19.37.13.07.29.07.41 0 .13-.08.21-.22.2-.37v-2.9c0-.45-.18-.89-.5-1.2l-.81-.82c.13-.13.28-.22.44-.29l1.46-.54 1.62 1.61v4.14c-.01.15.07.29.2.37.12.07.28.07.41 0 .13-.08.2-.22.2-.37v-4.13l1.61-1.62 1.46.55c.17.06.32.16.45.28l-.82.82c-.32.32-.5.75-.49 1.2v2.91c-.01.14.06.28.19.36.13.07.29.07.41 0 .13-.08.21-.22.2-.36v-2.91c0-.24.09-.47.26-.63l.64-.64c.01.06.02.13.02.2v3.98c.01.21.18.38.4.38.22 0 .39-.17.4-.38v-3.98c0-.89-.55-1.68-1.38-1.99zm-3.76-10c.68 0 1.24.51 1.32 1.18-.84-.35-1.79-.35-2.63 0 .07-.67.64-1.18 1.31-1.18zm-2.61 4.34c0-1.45 1.17-2.61 2.61-2.61 1.45 0 2.62 1.16 2.62 2.61v.44c-1.88-.14-3.68-1.21-3.7-1.22-.1-.06-.21-.07-.32-.04-.11.03-.2.11-.25.21-.18.36-.6.65-.96.85zm0 1.29v-.16c.37-.16 1.03-.5 1.45-1.03.66.34 2.17 1.04 3.78 1.15v.04c0 .93-.5 1.79-1.31 2.26-.81.47-1.8.47-2.61 0-.81-.47-1.31-1.33-1.31-2.26zm2.61 5.46-1.27-1.28c.24-.23.38-.55.38-.88.59.16 1.2.16 1.78 0 .01.33.15.65.39.88z"/>
            <text xml:space="preserve" x="170" y="415" fill="#000" font-family="Arial, Helvetica" font-size="11" overflow="visible"
                  style="text-align:left;white-space:pre;inline-size:81.9105" transform="translate(3.4482759 -3.4482759)"><tspan x="170" y="415">Review
</tspan>
                <tspan x="170" y="428.75">Issue List</tspan></text>
        </g>
        <g class="bpmn-exclusive-gateway" data-bpmn-id="exclusive_gateway_1">
            <path stroke="#000" stroke-miterlimit="10" stroke-width="2.02" d="m340.8 390.21 21.21 21.21-21.21 21.21-21.21-21.21z"/>
            <path fill="#000" stroke="#000" stroke-miterlimit="10"
                  d="m346.49220959 402.12154583 3.59917351 3.59917351L344.39210245 411.42l5.69928065 5.69928066-3.59917351 3.59917351-5.69928066-5.69928065-5.69928065 5.69928065-3.59917352-3.59917351L337.19375542 411.42l-5.69928066-5.69928066 3.59917352-3.59917351 5.69928065 5.69928065z"/>
            <text x="297.70114" y="375.86206" fill="#000" font-family="Arial, Helvetica" font-size="11" overflow="visible" style="text-align:left">Are issues
                ready?
            </text>
        </g>
        <circle cx="340.79999" cy="515.45001" r="16.16" stroke="#000" stroke-width="5.05" class="bpmn-end-event" data-bpmn-id="end_event_1"
                transform="translate(.5 .5)"/>
        <g stroke="#000" stroke-miterlimit="10" stroke-width="1.52" class="bpmn-sequence-flow" data-bpmn-id="sequence_flow_22">
            <path fill="none" d="M1423 81.60801V-27.026026 360.63695" transform="matrix(1 0 0 .86405 0 51.035832)"/>
            <path fill="#000" d="m1423 375.39-4.55-13.64h9.1z" transform="matrix(1 0 0 .86405 0 51.035832)"/>
        </g>
        <g stroke="#000" stroke-miterlimit="10" stroke-width="1.52" class="bpmn-sequence-flow" data-bpmn-id="sequence_flow_22">
            <path fill="none" d="M970.73181 109.47694V28.13016" transform="matrix(1.00226 0 0 .97834 -2.1981423 .12176773)"/>
            <path fill="#000" d="m970.73181 109.47727-4.55-13.639994h9.1z" transform="matrix(1.00226 0 0 .97834 -2.1981423 .12176773)"/>
        </g>
        <path fill="none" stroke="#000" stroke-miterlimit="10" stroke-width="1.52" d="M1470.0352 412.72749h34.3855" class="bpmn-type-flow bpmn-sequence-flow"
              data-bpmn-id="sequence_flow_12"/>
        <g stroke="#000" stroke-miterlimit="10" stroke-width="1.52" class="bpmn-sequence-flow" data-bpmn-id="sequence_flow_5">
            <path fill="none" d="M1250.81 411H1361.73"/>
            <path fill="#000" d="m1375.36 411-13.63 4.55v-9.1z"/>
        </g>
        <g class="bpmn-sequence-flow" data-bpmn-id="sequence_flow_4">
            <path fill="none" stroke="#000" stroke-miterlimit="10" stroke-width="1.52" d="M362.01 411.42h74.56"/>
            <path fill="#000" stroke="#000" stroke-miterlimit="10" stroke-width="1.52" d="m450.2 411.42-13.63 4.55v-9.09z"/>
            <text x="360.91953" y="433.33334" fill="#000" font-family="Arial, Helvetica" font-size="11" overflow="visible" style="text-align:left">Yes</text>
        </g>
        <g class="bpmn-sequence-flow" data-bpmn-id="sequence_flow_3">
            <path fill="none" stroke="#000" stroke-miterlimit="10" stroke-width="1.52" d="M341 432.43v.28q0 .29-.01 2.81l-.14 48.44M344.28 435.71l-6.56 6.57"/>
            <path fill="#000" stroke="#000" stroke-miterlimit="10" stroke-width="1.52" d="m340.8 497.6-4.5-13.65 9.09.03z"/>
            <text x="311.49426" y="442.52872" fill="#000" font-family="Arial, Helvetica" font-size="11" overflow="visible" style="text-align:left">No</text>
        </g>
        <g stroke="#000" stroke-miterlimit="10" stroke-width="1.52" class="bpmn-sequence-flow" data-bpmn-id="sequence_flow_2">
            <path fill="none" d="M242.83 411.42h61.43"/>
            <path fill="#000" d="m317.89 411.42-13.63 4.55v-9.09z"/>
        </g>
        <g stroke="#000" stroke-miterlimit="10" stroke-width="1.52" class="bpmn-sequence-flow" data-bpmn-id="sequence_flow_1">
            <path fill="none" d="M73.15 411.42h58.4"/>
            <path fill="#000" d="m145.18 411.42-13.63 4.55v-9.09z"/>
        </g>
        <g stroke="#000" stroke-width="1.52" class="bpmn-message-flow" data-bpmn-id="message_flow_1">
            <path fill="none" stroke-dasharray="12.12, 7.575" stroke-miterlimit="10" d="M552 430.77778v-1.21606V800"/>
            <circle cx="552" cy="427.57999" r="4.04"/>
        </g>
        <g stroke="#000" stroke-width="1.52" class="bpmn-message-flow" data-bpmn-id="message_flow_2">
            <path fill="none" stroke-dasharray="12.12, 7.575" stroke-miterlimit="10" d="M783.18 702.3v100"/>
            <circle cx="783.17999" cy="698.26001" r="4.04"/>
        </g>
        <g stroke="#000" stroke-width="1.52" class="bpmn-message-flow" data-bpmn-id="message_flow_3">
            <path fill="none" stroke-dasharray="12.12, 7.575" stroke-miterlimit="10" d="M1418 448.87119v-1.25042V800"/>
            <circle cx="1418" cy="445.76001" r="4.04"/>
        </g>
        <g>
            <g class="overlay-badge" data-bpmn-id="sequence_flow_3" font-family="Arial, Helvetica" font-size="18.18" text-anchor="middle">
                <path fill="#aa6bd1" stroke="#aa6bd1" stroke-width="1.01" d="M329 450h24v21h-24z"/>
                <text x="341" y="467">26</text>
            </g>
            <g class="overlay-badge" data-bpmn-id="sequence_flow_4" font-family="Arial, Helvetica" font-size="18.18" text-anchor="middle">
                <path fill="#aa6bd1" stroke="#aa6bd1" stroke-width="1.01" d="M385 402h24v21h-24z"/>
                <text x="397" y="419.07999">69</text>
            </g>
            <g class="overlay-badge" data-bpmn-id="sub_process_1" font-family="Arial, Helvetica" font-size="14.14" text-anchor="middle">
                <path fill="#36a036" stroke="#36a036" stroke-width="1.01" d="M841 104h19v16h-19z"/>
                <text x="851" y="117.06">69</text>
            </g>
            <g class="overlay-badge" data-bpmn-id="send_task_1" font-family="Arial, Helvetica" font-size="14.14" text-anchor="middle">
                <path fill="#36a036" stroke="#36a036" stroke-width="1.01" d="M547 342h19v16h-19z"/>
                <text x="557" y="355.06">69</text>
            </g>
            <g class="overlay-badge" data-bpmn-id="user_task_2" font-family="Arial, Helvetica" font-size="14.14" text-anchor="middle">
                <path fill="#36a036" stroke="#36a036" stroke-width="1.01" d="M652 464h19v16h-19z"/>
                <text x="662" y="477.06">69</text>
            </g>
            <g class="overlay-badge" data-bpmn-id="sequence_flow_34" font-family="Arial, Helvetica" font-size="18.18" text-anchor="middle">
                <path fill="#aa6bd1" stroke="#aa6bd1" stroke-width="1.01" d="M1076 248h24v21h-24z"/>
                <text x="1088" y="265.07999">69</text>
            </g>
            <g class="overlay-badge" data-bpmn-id="user_task_3" font-family="Arial, Helvetica" font-size="14.14" text-anchor="middle">
                <path fill="#36a036" stroke="#36a036" stroke-width="1.01" d="M824 204h19v16h-19z"/>
                <text x="834" y="217.06">69</text>
            </g>
            <g class="overlay-badge" data-bpmn-id="sequence_flow_31" font-family="Arial, Helvetica" font-size="18.18" text-anchor="middle">
                <path fill="#aa6bd1" stroke="#aa6bd1" stroke-width="1.01" d="M900 496h24v21h-24z"/>
                <text x="912" y="513.08002">30</text>
            </g>
            <g class="overlay-badge" data-bpmn-id="sequence_flow_32" font-family="Arial, Helvetica" font-size="18.18" text-anchor="middle">
                <path fill="#aa6bd1" stroke="#aa6bd1" stroke-width="1.01" d="M793 455h24v21h-24z"/>
                <text x="805" y="472">39</text>
            </g>
            <g class="overlay-badge" data-bpmn-id="sequence_flow_36" font-family="Arial, Helvetica" font-size="18.18" text-anchor="middle">
                <path fill="#aa6bd1" stroke="#aa6bd1" stroke-width="1.01" d="M1075 496h24v21h-24z"/>
                <text x="1087" y="513.08002">69</text>
            </g>
            <g class="overlay-badge" data-bpmn-id="intermediate_catch_event_2" font-family="Arial, Helvetica" font-size="14.14" text-anchor="middle">
                <path fill="#36a036" stroke="#36a036" stroke-width="1.01" d="M644 634h19v16h-19z"/>
                <text x="654" y="647.06">69</text>
            </g>
            <g class="overlay-badge" data-bpmn-id="send_task_2" font-family="Arial, Helvetica" font-size="14.14" text-anchor="middle">
                <path fill="#36a036" stroke="#36a036" stroke-width="1.01" d="M773 616h19v16h-19z"/>
                <text x="783" y="629.06">69</text>
            </g>
            <g class="overlay-badge" data-bpmn-id="sequence_flow_28" font-family="Arial, Helvetica" font-size="18.18" text-anchor="middle">
                <path fill="#aa6bd1" stroke="#aa6bd1" stroke-width="1.01" d="M1075 648h24v21h-24z"/>
                <text x="1087" y="665.08002">69</text>
            </g>
            <g class="overlay-badge" data-bpmn-id="sequence_flow_28" font-family="Arial, Helvetica" font-size="18.18" text-anchor="middle">
                <path fill="#aa6bd1" stroke="#aa6bd1" stroke-width="1.01" d="M1300 400h24v21h-24z"/>
                <text x="1312" y="417">69</text>
            </g>
            <g class="overlay-badge" data-bpmn-id="task_1" font-family="Arial, Helvetica" font-size="14.14" text-anchor="middle">
                <path fill="#36a036" stroke="#36a036" stroke-width="1.01" d="M1179 342h19v16h-19z"/>
                <text x="1189" y="355.06">69</text>
            </g>
        </g>
    </g>
</svg>